<svg width="76" height="66" viewBox="0 0 76 66" fill="none" xmlns="http://www.w3.org/2000/svg">
<g filter="url(#filter0_d_1_382)">
<rect x="20" y="18" width="36" height="26" rx="3" fill="white"/>
</g>
<path d="M37.9962 25.4814C35.79 25.4814 33.8837 26.7814 33.0025 28.6564C32.99 29.2377 33.04 31.0064 34.1462 31.7064C35.14 32.3377 36.4337 32.6064 37.9962 31.0002C39.5587 29.3939 40.8837 29.7002 41.5837 30.0314C42.2837 30.3627 43.215 31.1689 42.99 33.3439H42.9962C43.3275 32.6314 43.515 31.8377 43.515 31.0002C43.515 27.9502 41.0462 25.4814 37.9962 25.4814Z" fill="#C60C30"/>
<path d="M42.9902 33.3437C43.2214 31.175 42.2839 30.3625 41.5839 30.0312C40.8839 29.7 39.5527 29.3875 37.9964 31C36.4402 32.6125 35.1402 32.3375 34.1464 31.7062C33.0402 31.0062 32.9839 29.2375 33.0027 28.6562C32.6714 29.3687 32.4777 30.1625 32.4777 31C32.4777 34.05 34.9464 36.5187 37.9964 36.5187C40.2027 36.5187 42.1089 35.2187 42.9902 33.3437Z" fill="#003478"/>
<path d="M29.5692 33.3137L28.8151 33.8164L31.8764 38.4086L32.6305 37.9059L29.5692 33.3137Z" fill="black"/>
<path d="M27.2813 34.8386L26.5272 35.3413L29.5884 39.9335L30.3425 39.4308L27.2813 34.8386Z" fill="black"/>
<path d="M28.4265 34.0813L27.6724 34.584L29.073 36.685L29.8271 36.1823L28.4265 34.0813Z" fill="black"/>
<path d="M29.3317 37.0688L30.7317 39.1688L31.488 38.6688L30.0817 36.5625L29.3317 37.0688Z" fill="black"/>
<path d="M49.475 35.3311L48.7187 34.8311L47.325 36.9373L48.075 37.4373L49.475 35.3311Z" fill="black"/>
<path d="M45.6687 39.4314L46.4187 39.9314L47.8187 37.8252L47.0625 37.3252L45.6687 39.4314Z" fill="black"/>
<path d="M48.3246 34.5752L47.5683 34.0752L46.1746 36.1752L46.9308 36.6814L48.3246 34.5752Z" fill="black"/>
<path d="M44.5251 38.6688L45.2751 39.1688L46.6751 37.0688L45.9189 36.5688L44.5251 38.6688Z" fill="black"/>
<path d="M43.3748 37.9124L44.131 38.4124L45.5248 36.3124L44.7685 35.8062L43.3748 37.9124Z" fill="black"/>
<path d="M46.4281 33.3119L45.032 35.416L45.7872 35.9171L47.1832 33.813L46.4281 33.3119Z" fill="black"/>
<path d="M48.3256 27.413L47.5693 27.9192L44.5256 23.313L45.2818 22.813L48.3256 27.413Z" fill="black"/>
<path d="M48.7189 27.1565L49.4751 26.6565L48.0814 24.5503L47.3251 25.0503L48.7189 27.1565Z" fill="black"/>
<path d="M46.4316 22.0566L45.6691 22.5504L47.0628 24.6629L47.8191 24.1629L46.4316 22.0566Z" fill="black"/>
<path d="M45.7891 26.0662L45.0334 26.5664L46.4269 28.672L47.1827 28.1718L45.7891 26.0662Z" fill="black"/>
<path d="M44.1383 23.5693L43.3821 24.0693L44.7758 26.1756L45.5258 25.6756L44.1383 23.5693Z" fill="black"/>
<path d="M29.5687 28.6753L28.8124 28.169L31.8812 23.5815L32.6312 24.0878L29.5687 28.6753Z" fill="black"/>
<path d="M28.4252 27.9068L27.6689 27.4006L30.7377 22.8193L31.4939 23.3193L28.4252 27.9068Z" fill="black"/>
<path d="M27.2816 27.1441L26.5254 26.6379L29.5941 22.0566L30.3504 22.5566L27.2816 27.1441Z" fill="black"/>
<defs>
<filter id="filter0_d_1_382" x="0" y="0" width="76" height="66" filterUnits="userSpaceOnUse" color-interpolation-filters="sRGB">
<feFlood flood-opacity="0" result="BackgroundImageFix"/>
<feColorMatrix in="SourceAlpha" type="matrix" values="0 0 0 0 0 0 0 0 0 0 0 0 0 0 0 0 0 0 127 0" result="hardAlpha"/>
<feOffset dy="2"/>
<feGaussianBlur stdDeviation="10"/>
<feComposite in2="hardAlpha" operator="out"/>
<feColorMatrix type="matrix" values="0 0 0 0 0 0 0 0 0 0 0 0 0 0 0 0 0 0 0.25 0"/>
<feBlend mode="normal" in2="BackgroundImageFix" result="effect1_dropShadow_1_382"/>
<feBlend mode="normal" in="SourceGraphic" in2="effect1_dropShadow_1_382" result="shape"/>
</filter>
</defs>
</svg>
