<svg width="36" height="36" viewBox="0 0 36 36" fill="none" xmlns="http://www.w3.org/2000/svg">
<path d="M4.50098 30.6V5.4C4.50098 4.90294 4.90392 4.5 5.40098 4.5H30.601C31.0981 4.5 31.501 4.90294 31.501 5.4V30.6C31.501 31.0971 31.0981 31.5 30.601 31.5H5.40098C4.90392 31.5 4.50098 31.0971 4.50098 30.6Z" stroke="#FA002C" stroke-width="2.5" stroke-linecap="round" stroke-linejoin="round"/>
<path d="M22.501 12.75C21.4735 11.7225 19.664 11.0078 18.001 10.9631M13.501 22.5C14.4677 23.789 16.2652 24.5241 18.001 24.5865M18.001 10.9631C16.0223 10.9098 14.251 11.805 14.251 14.25C14.251 18.75 22.501 16.5 22.501 21C22.501 23.5665 20.3053 24.6693 18.001 24.5865M18.001 10.9631V8.25M18.001 24.5865V27.75" stroke="#FA002C" stroke-width="2.5" stroke-linecap="round" stroke-linejoin="round"/>
</svg>
