<svg width="36" height="36" viewBox="0 0 36 36" fill="none" xmlns="http://www.w3.org/2000/svg">
<path d="M28.0557 31.6406H8.08691C6.98702 31.6395 5.9325 31.2021 5.15476 30.4243C4.37702 29.6466 3.93959 28.5921 3.93848 27.4922V17.2969C3.93959 16.197 4.37702 15.1425 5.15476 14.3647C5.9325 13.587 6.98702 13.1496 8.08691 13.1484H15.1083C15.6491 13.1484 16.1678 12.9336 16.5502 12.5512C16.9326 12.1688 17.1474 11.6502 17.1474 11.1094C17.1485 10.0095 17.5859 8.95496 18.3637 8.17722C19.1414 7.39948 20.1959 6.96205 21.2958 6.96094H28.0557C29.1556 6.96205 30.2101 7.39948 30.9878 8.17722C31.7656 8.95496 32.203 10.0095 32.2041 11.1094V27.4922C32.2028 28.592 31.7653 29.6464 30.9876 30.4241C30.2099 31.2018 29.1555 31.6393 28.0557 31.6406ZM8.08691 15.2578C7.54612 15.2578 7.02748 15.4726 6.64508 15.855C6.26268 16.2374 6.04785 16.7561 6.04785 17.2969V27.4922C6.04785 28.033 6.26268 28.5516 6.64508 28.934C7.02748 29.3164 7.54612 29.5312 8.08691 29.5312H28.0557C28.5965 29.5312 29.1151 29.3164 29.4975 28.934C29.8799 28.5516 30.0947 28.033 30.0947 27.4922V11.1094C30.0947 10.5686 29.8799 10.0499 29.4975 9.66754C29.1151 9.28514 28.5965 9.07031 28.0557 9.07031H21.2958C20.755 9.07031 20.2364 9.28514 19.854 9.66754C19.4716 10.0499 19.2568 10.5686 19.2568 11.1094C19.2555 12.2092 18.818 13.2636 18.0403 14.0413C17.2626 14.819 16.2082 15.2565 15.1083 15.2578H8.08691Z" fill="#FA002C"/>
<path d="M8.50879 14.5911C8.22907 14.5911 7.9608 14.4799 7.76301 14.2822C7.56522 14.0844 7.4541 13.8161 7.4541 13.5364V3.76294C7.4541 3.48322 7.56522 3.21496 7.76301 3.01716C7.9608 2.81937 8.22907 2.70825 8.50879 2.70825H27.6338C27.9135 2.70825 28.1818 2.81937 28.3796 3.01716C28.5774 3.21496 28.6885 3.48322 28.6885 3.76294V7.34888C28.6885 7.6286 28.5774 7.89686 28.3796 8.09465C28.1818 8.29245 27.9135 8.40356 27.6338 8.40356C27.3541 8.40356 27.0858 8.29245 26.888 8.09465C26.6902 7.89686 26.5791 7.6286 26.5791 7.34888V4.81763H9.56348V13.5364C9.56348 13.8161 9.45236 14.0844 9.25457 14.2822C9.05677 14.4799 8.78851 14.5911 8.50879 14.5911Z" fill="#FA002C"/>
</svg>
