<svg width="38" height="36" viewBox="0 0 38 36" fill="none" xmlns="http://www.w3.org/2000/svg">
<path fill-rule="evenodd" clip-rule="evenodd" d="M4.85218 14.5264H10.5864V31.251H4.85218C4.32436 31.251 3.89648 30.675 3.89648 29.9645V15.8129C3.89648 15.1024 4.32436 14.5264 4.85218 14.5264Z" stroke="#FA002C" stroke-width="2.5" stroke-linecap="round" stroke-linejoin="round"/>
<path d="M10.5862 15.7807L16.1048 5.08846C16.92 3.50871 18.8616 2.88906 20.4413 3.7044C20.7365 3.85673 21.0062 4.05381 21.2411 4.28866C22.182 5.22961 22.7107 6.5058 22.7107 7.8365V12.8539H31.4925C32.2121 12.8539 32.897 13.1629 33.3732 13.7023C33.8494 14.2418 34.0711 14.9598 33.9818 15.6738L32.1003 29.0535C31.9434 30.3089 30.8762 31.251 29.611 31.251H10.5862" stroke="#FA002C" stroke-width="2.5" stroke-linecap="round" stroke-linejoin="round"/>
</svg>
