<svg width="36" height="36" viewBox="0 0 36 36" fill="none" xmlns="http://www.w3.org/2000/svg">
<path d="M31.001 31H5.00098C3.89641 31 3.00098 30.1046 3.00098 29V11.625C3.00098 10.5204 3.89641 9.625 5.00098 9.625H9.88987C10.9944 9.625 11.8899 8.72957 11.8899 7.625V6C11.8899 4.89543 12.7853 4 13.8899 4H22.1121C23.2167 4 24.1121 4.89543 24.1121 6V7.625C24.1121 8.72957 25.0075 9.625 26.1121 9.625H31.001C32.1055 9.625 33.001 10.5204 33.001 11.625V29C33.001 30.1046 32.1055 31 31.001 31Z" stroke="#FA002C" stroke-width="2.5"/>
<circle cx="18.001" cy="20" r="6" stroke="#FA002C" stroke-width="2.5"/>
</svg>
