<svg width="36" height="36" viewBox="0 0 36 36" fill="none" xmlns="http://www.w3.org/2000/svg">
<path d="M13.334 21.3333L22.6673 11.3333" stroke="#FA002C" stroke-width="2.5" stroke-linecap="round" stroke-linejoin="round"/>
<path d="M13.501 14C14.3294 14 15.001 13.3284 15.001 12.5C15.001 11.6716 14.3294 11 13.501 11C12.6725 11 12.001 11.6716 12.001 12.5C12.001 13.3284 12.6725 14 13.501 14Z" stroke="#FA002C" stroke-width="2.5" stroke-linecap="round" stroke-linejoin="round"/>
<path d="M22.501 22C23.3294 22 24.001 21.3284 24.001 20.5C24.001 19.6716 23.3294 19 22.501 19C21.6725 19 21.001 19.6716 21.001 20.5C21.001 21.3284 21.6725 22 22.501 22Z" stroke="#FA002C" stroke-width="2.5" stroke-linecap="round" stroke-linejoin="round"/>
<path d="M6.00098 33.3334V6.07416C6.00098 5.17045 6.3622 4.30377 7.00518 3.66475C7.64816 3.02574 8.52023 2.66675 9.42955 2.66675H26.5724C27.4817 2.66675 28.3538 3.02574 28.9968 3.66475C29.6398 4.30377 30.001 5.17045 30.001 6.07416V33.3334L24.8581 29.926L21.4295 33.3334L18.001 29.926L14.5724 33.3334L11.1438 29.926L6.00098 33.3334Z" stroke="#FA002C" stroke-width="2.5" stroke-linecap="round" stroke-linejoin="round"/>
</svg>
