<svg width="20" height="20" viewBox="0 0 20 20" fill="none" xmlns="http://www.w3.org/2000/svg">
<path d="M17.8569 13.8394C17.8569 14.0403 17.8197 14.3026 17.7453 14.6263C17.6709 14.9499 17.5927 15.2048 17.5109 15.3908C17.3546 15.7628 16.9008 16.1571 16.1493 16.5738C15.4499 16.9533 14.7579 17.143 14.0734 17.143C13.8725 17.143 13.6772 17.13 13.4874 17.1039C13.2977 17.0779 13.0838 17.0314 12.8457 16.9644C12.6076 16.8975 12.4309 16.8435 12.3156 16.8026C12.2002 16.7617 11.9938 16.6854 11.6961 16.5738C11.3985 16.4622 11.2162 16.3952 11.1493 16.3729C10.4201 16.1125 9.76907 15.8037 9.19615 15.4466C8.24377 14.8588 7.25977 14.0571 6.24414 13.0414C5.22852 12.0258 4.4268 11.0418 3.83901 10.0894C3.48186 9.51651 3.17308 8.86547 2.91267 8.1363C2.89035 8.06934 2.82338 7.88704 2.71177 7.58943C2.60017 7.29181 2.5239 7.08533 2.48298 6.97001C2.44206 6.85468 2.38811 6.67797 2.32115 6.43987C2.25419 6.20178 2.20768 5.98786 2.18164 5.79813C2.1556 5.6084 2.14258 5.41309 2.14258 5.21219C2.14258 4.52767 2.33231 3.83571 2.71177 3.1363C3.12844 2.38481 3.52279 1.93094 3.89481 1.77469C4.08082 1.69285 4.33566 1.61472 4.65932 1.54032C4.98298 1.46591 5.24526 1.42871 5.44615 1.42871C5.55032 1.42871 5.62844 1.43987 5.68052 1.46219C5.81445 1.50684 6.01163 1.78957 6.27204 2.31041C6.35389 2.45178 6.4655 2.65267 6.60686 2.91309C6.74823 3.1735 6.87844 3.40974 6.99749 3.62179C7.11654 3.83384 7.23186 4.03288 7.34347 4.21889C7.36579 4.24865 7.4309 4.34166 7.53878 4.49791C7.64667 4.65416 7.72666 4.78623 7.77874 4.89411C7.83082 5.002 7.85686 5.10803 7.85686 5.21219C7.85686 5.361 7.75084 5.54701 7.53878 5.77023C7.32673 5.99344 7.09608 6.19806 6.84682 6.38407C6.59756 6.57008 6.36691 6.76725 6.15485 6.97559C5.9428 7.18392 5.83677 7.35505 5.83677 7.48898C5.83677 7.55594 5.85538 7.63965 5.89258 7.7401C5.92978 7.84054 5.9614 7.91681 5.98744 7.96889C6.01349 8.02097 6.06557 8.11026 6.14369 8.23675C6.22182 8.36323 6.2646 8.43392 6.27204 8.4488C6.83752 9.46815 7.48484 10.3424 8.21401 11.0716C8.94317 11.8007 9.81743 12.4481 10.8368 13.0135C10.8517 13.021 10.9223 13.0638 11.0488 13.1419C11.1753 13.22 11.2646 13.2721 11.3167 13.2981C11.3688 13.3242 11.445 13.3558 11.5455 13.393C11.6459 13.4302 11.7296 13.4488 11.7966 13.4488C11.9305 13.4488 12.1017 13.3428 12.31 13.1307C12.5183 12.9187 12.7155 12.688 12.9015 12.4388C13.0875 12.1895 13.2921 11.9588 13.5153 11.7468C13.7386 11.5347 13.9246 11.4287 14.0734 11.4287C14.1775 11.4287 14.2836 11.4548 14.3915 11.5068C14.4993 11.5589 14.6314 11.6389 14.7877 11.7468C14.9439 11.8547 15.0369 11.9198 15.0667 11.9421C15.2527 12.0537 15.4517 12.169 15.6638 12.2881C15.8758 12.4071 16.1121 12.5373 16.3725 12.6787C16.6329 12.8201 16.8338 12.9317 16.9752 13.0135C17.496 13.2739 17.7787 13.4711 17.8234 13.6051C17.8457 13.6571 17.8569 13.7353 17.8569 13.8394Z" fill="white"/>
</svg>
