<svg width="80" height="80" viewBox="0 0 80 80" fill="none" xmlns="http://www.w3.org/2000/svg">
<rect x="1" y="1" width="78" height="78" rx="7" stroke="white" stroke-opacity="0.2" stroke-width="2"/>
<path d="M40 62C52.1503 62 62 52.1503 62 40C62 27.8497 52.1503 18 40 18C27.8497 18 18 27.8497 18 40C18 52.1503 27.8497 62 40 62Z" fill="url(#paint0_linear_1_421)"/>
<path d="M50.707 30.6586L46.7796 50.4672C46.7796 50.4672 46.2296 51.8422 44.7171 51.1805L35.6507 44.2281L32.3507 42.6383L26.7991 40.7734C26.7991 40.7734 25.9484 40.4727 25.8624 39.8109C25.7765 39.1492 26.8249 38.7969 26.8249 38.7969L48.8937 30.143C48.8937 30.1344 50.707 29.3352 50.707 30.6586Z" fill="white"/>
<path d="M34.9459 50.2438C34.9459 50.2438 34.6795 50.2181 34.3529 49.1782C34.0264 48.1384 32.3506 42.6384 32.3506 42.6384L45.6795 34.1735C45.6795 34.1735 46.4529 33.7095 46.4186 34.1735C46.4186 34.1735 46.5561 34.2595 46.1436 34.6376C45.7311 35.0243 35.6764 44.0649 35.6764 44.0649" fill="#D2E4F0"/>
<path d="M39.123 46.8922L35.5395 50.1664C35.5395 50.1664 35.2559 50.3813 34.9551 50.2438L35.6426 44.168" fill="#B5CFE4"/>
<defs>
<linearGradient id="paint0_linear_1_421" x1="40" y1="18" x2="40" y2="61.8395" gradientUnits="userSpaceOnUse">
<stop stop-color="#41BCE7"/>
<stop offset="1" stop-color="#22A6DC"/>
</linearGradient>
</defs>
</svg>
