<svg width="80" height="80" viewBox="0 0 80 80" fill="none" xmlns="http://www.w3.org/2000/svg">
<rect x="1" y="1" width="78" height="78" rx="7" stroke="white" stroke-opacity="0.2" stroke-width="2"/>
<path d="M64.1048 27.847C63.5261 25.6684 61.8213 23.9524 59.6566 23.37C55.7331 22.312 40 22.312 40 22.312C40 22.312 24.267 22.312 20.3432 23.3701C18.1786 23.9525 16.4738 25.6684 15.8952 27.8472C14.8439 31.7961 14.8439 40.0357 14.8439 40.0357C14.8439 40.0357 14.8439 48.2753 15.8952 52.2242C16.4738 54.403 18.1786 56.0474 20.3432 56.6299C24.267 57.6879 40 57.6879 40 57.6879C40 57.6879 55.7331 57.6879 59.6566 56.6298C61.8213 56.0473 63.5261 54.4029 64.1048 52.2241C65.1562 48.2752 65.1562 40.0356 65.1562 40.0356C65.1562 40.0356 65.1562 31.7961 64.1048 27.847Z" fill="#FF0000"/>
<path d="M34.8546 47.5164V32.5547L48.0043 40.0357L34.8546 47.5164Z" fill="white"/>
</svg>
